<svg xmlns="http://www.w3.org/2000/svg" viewBox="0 0 372.05 415.07">
    <path d="M362.57,161.22a96,96,0,0,1-4.15,13.85,80.57,80.57,0,0,1-9.12,18.29c-3.37,5.09-8.77,9.74-18.35,17.11a144.33,144.33,0,0,1-26.69,16.45c-8.39,4-11.76,4.5-14.3,4.66-10.72.64-19.45-5-19.26-5.53s8.09,4.35,18.58,3.9c4.73-.2,11.43-1.54,28-13.64,15.42-11.23,23.13-16.84,30.07-26.95a80.41,80.41,0,0,0,13.17-34.08h0A72.73,72.73,0,0,0,360.9,138a78.48,78.48,0,0,0-8.78-28.58c-4.65-9-9.53-14.49-18.92-25-9.82-11-36.46-28.46-44.25-34.1-6.56-4.75-13.89-10-18.58-19.16-3.77-7.32-8.05-21.38-12.84-28.58-.75-1.13-2-2.82-3-2.6-1.3.28-1.57,3.42-1.69,4.55-.3,2.81-.7,2.36-12.5,28.9-.62,1.4-4,8-6.08,9.42a17.6,17.6,0,0,1-10.47,2.92c7.76-3.08,9.62-6.65,10.77-9.93A179.93,179.93,0,0,0,186,29.25C83.29,29.25,0,115.62,0,222.16S83.29,415.07,186,415.07a179.87,179.87,0,0,0,60.68-10.5,77.82,77.82,0,0,1-19.77-2.73c-4.79-1.66-8.23-4.15-9.94-7.18a16.18,16.18,0,0,1-1.87-6.73,20.64,20.64,0,0,1,.18-5.24,8.93,8.93,0,0,0-.13-4.23c-.38-1.26-.91-2-2.47-4.1-3.57-4.74-5.37-7.13-8.06-10.33-3.57-4.25-4-8.51-4.59-14.41-.26-2.58-.55-5.51-1.14-9a103.25,103.25,0,0,0-6.66-22.74,1.46,1.46,0,0,1,.85-1.92,1.57,1.57,0,0,1,2,.82A105.84,105.84,0,0,1,202,340.14c.61,3.6.9,6.57,1.17,9.2.57,5.78.92,9.28,3.92,12.84,2.74,3.26,4.55,5.66,8.15,10.45,1.61,2.13,2.4,3.23,2.94,5a11.48,11.48,0,0,1,.22,5.44,17.71,17.71,0,0,0-.17,4.58,13.68,13.68,0,0,0,1.51,5.6c1.35,2.39,4.22,4.4,8.3,5.81a77.51,77.51,0,0,0,22.71,2.53c.82-.06,24.41,1.6,31.15-4.06,3.7-3.11,2.73-11.77,2.65-12.53a25,25,0,0,0-.7-3.77c0-.15-.07-.26-.08-.31-.53-2.71-2.4-9.44-8.16-13.37a25.56,25.56,0,0,0-2.34-1.36c-1.53-.81-3-1.57-3.9-3.42-2.17-4.36,1.08-9.6,2.3-11.57l.13-.21c3.08-5,4.13-14,6.21-31.89,1.7-14.56,3.17-27.13-3.87-39.4a44,44,0,0,0-14.71-15.07,1.44,1.44,0,0,1-.42-2.05,1.55,1.55,0,0,1,2.12-.4,46.9,46.9,0,0,1,15.7,16.1c7.5,13.08,5.91,26.71,4.23,41.15-2.13,18.31-3.2,27.5-6.62,33.06l-.14.22c-1,1.6-3.62,5.85-2.16,8.78.48,1,1.14,1.34,2.6,2.11a24.57,24.57,0,0,1,2.64,1.55c6.67,4.54,8.8,12.15,9.41,15.22l0,.14a28.62,28.62,0,0,1,.67,3.36c50.93-34.41,84.6-94,84.6-161.71A199.34,199.34,0,0,0,362.57,161.22Zm-16.63-5.94a1.58,1.58,0,0,1,2.1.53c3,5,2.92,13.1,2.91,13.44a1.51,1.51,0,0,1-1.53,1.45h0a1.51,1.51,0,0,1-1.51-1.51c0-.07.13-7.6-2.49-11.89A1.45,1.45,0,0,1,345.94,155.28ZM338.39,158c5.33,2.6,6.14,4.19,6.41,5.19.66,2.38-.76,4.61-1.35,5.52-3.63,5.69-11.83,6.12-13.17,6.18-.64-1.82,1.4-6.63,2-9.39s-2-7.31-5-11.4A51.09,51.09,0,0,1,338.39,158ZM304.16,94.71a1.57,1.57,0,0,1,2.16.15,51.6,51.6,0,0,1,9.91,15.71l.41,1.05a37.2,37.2,0,0,0,4.18,8.42,11.76,11.76,0,0,0,1.84,2.11,13.39,13.39,0,0,1,2.8,3.55,15.71,15.71,0,0,1,1.67,7.49,1.5,1.5,0,0,1-1.53,1.46h0a1.5,1.5,0,0,1-1.51-1.5A12.81,12.81,0,0,0,322.7,127a10,10,0,0,0-2.23-2.79,15.26,15.26,0,0,1-2.25-2.6,41,41,0,0,1-4.46-9l-.41-1A48.63,48.63,0,0,0,304,96.79,1.44,1.44,0,0,1,304.16,94.71Zm-27.39,55a1.56,1.56,0,0,1,2.06.65,47.15,47.15,0,0,0,14.73,16.68,50.64,50.64,0,0,0,26.86,8.82,1.5,1.5,0,0,1,1.48,1.52,36.1,36.1,0,0,1-2.14,10.24,24.23,24.23,0,0,1-4.31,6.9,1.52,1.52,0,0,1-1.17.52,1.54,1.54,0,0,1-1-.35,1.45,1.45,0,0,1-.18-2.08,21.42,21.42,0,0,0,3.8-6.08,32.37,32.37,0,0,0,1.8-7.81,53.73,53.73,0,0,1-26.95-9.29,50.31,50.31,0,0,1-15.67-17.74A1.45,1.45,0,0,1,276.77,149.72ZM193.18,389.29c-1.12,7.63-7.9,12.09-10.79,14-5.51,3.64-10.47,6-27,6-2.89,0-6.12-.07-9.78-.22-10.59-.44-31.29-8.48-34.91-16.82-1.62-3.73-3.44-8.19-5.38-12.92-3.41-8.34-6.93-17-9.67-22.4-3.58-7.1-11.67-13.34-29.63-26.76-10.93-8.17-22.49-16-34.34-23.31a1.43,1.43,0,0,1-.47-2,1.57,1.57,0,0,1,2.12-.45c11.94,7.34,23.57,15.23,34.57,23.46C85,340.59,94.4,347.62,98.45,355.64c2.79,5.55,6.34,14.22,9.77,22.61,1.93,4.71,3.75,9.17,5.35,12.87,2.86,6.59,21.64,14.57,32.21,15,23.6,1,28.92-1.34,34.87-5.26,2.78-1.83,8.56-5.64,9.49-12,1.05-7.18-4.75-13.14-5-13.39a15.22,15.22,0,0,0-4.83-3.22,32.91,32.91,0,0,1-7.56-4.8,40.69,40.69,0,0,1-7-7.44c-4.78-6.86-4.89-14.34-5-18.81,0-.52,0-1,0-1.45-.4-12.64-7.14-22.54-14.27-33A82.51,82.51,0,0,0,112,277.4a83.82,83.82,0,0,0-31.83-7.33,1.48,1.48,0,1,1,.11-2.95,87,87,0,0,1,33,7.61A85.43,85.43,0,0,1,149,305.14c7.38,10.84,14.36,21.07,14.78,34.54q0,.69,0,1.5c.07,4.41.17,11.08,4.44,17.21a37.4,37.4,0,0,0,6.49,6.85,30,30,0,0,0,6.94,4.4,18.09,18.09,0,0,1,5.66,3.82C188.09,374.19,194.41,380.86,193.18,389.29Zm44.93-184.18a129.09,129.09,0,0,0-26.69,2.27c-19.53,3.93-33.51,12-42.74,17.38-4.73,2.77-8.73,5.06-11.14,7.14a120.6,120.6,0,0,1,44.93-24.36,124.36,124.36,0,0,1,56.75-2.92l12.33,5.2A135,135,0,0,0,238.11,205.11Z"
          style="fill:#f2b360"/>
</svg>